<?xml version="1.0" encoding="UTF-8"?><svg xmlns="http://www.w3.org/2000/svg" viewBox="0 0 100 100"><defs><style>.cls-1{fill:#fff;}.cls-2,.cls-3,.cls-4{fill:none;stroke:#fff;stroke-miterlimit:10;}.cls-3{stroke-width:2px;}.cls-4{stroke-width:.5px;}</style></defs><g id="Layer_49"><rect x="0" width="100" height="100" rx="16.01" ry="16.01"/><g id="Triangle"><g><path class="cls-2" d="M92.64,66.19c.39,.39,.26,.71-.29,.71H7.68c-.55,0-.68-.32-.29-.71L39.7,33.84c.39-.39,1.16-.71,1.71-.71h17.21c.55,0,1.32,.32,1.71,.71l32.32,32.34Z"/><path class="cls-2" d="M60.32,33.84c-.39-.39-1.16-.71-1.71-.71h-17.21c-.55,0-1.32,.32-1.71,.71L7.38,66.19c-.39,.39-.26,.71,.29,.71H92.35c.55,0,.68-.32,.29-.71L60.32,33.84Z"/><g><path class="cls-1" d="M97.5,68.99c.55,0,.68-.32,.29-.71L63.37,33.84c-.39-.39-.26-.7,.29-.69l14.86,.21c.55,0,1-.44,1-.99v-.11c0-.55-.45-1.01-1-1.01l-16.97-.21c-.55,0-1.32-.33-1.71-.72l-9.12-9.13c-.39-.39-1.03-.39-1.41,0l-9.13,9.13c-.39,.39-1.16,.71-1.71,.72l-16.97,.21c-.55,0-1,.46-1,1.01v.11c0,.55,.45,.99,1,.99l14.87-.21c.55,0,.68,.3,.29,.69L2.23,68.29c-.39,.39-.26,.71,.29,.71H97.5ZM49.31,24.15c.39-.39,1.03-.39,1.41,0l6.16,6.17c.39,.39,.26,.71-.29,.71h-13.16c-.55,0-.68-.32-.29-.71l6.17-6.17Zm-9.6,9.7c.39-.39,1.16-.71,1.71-.71h17.21c.55,0,1.32,.32,1.71,.71l32.32,32.34c.39,.39,.26,.71-.29,.71H7.68c-.55,0-.68-.32-.29-.71L39.7,33.84Z"/><path class="cls-2" d="M97.5,68.99c.55,0,.68-.32,.29-.71L63.37,33.84c-.39-.39-.26-.7,.29-.69l14.86,.21c.55,0,1-.44,1-.99v-.11c0-.55-.45-1.01-1-1.01l-16.97-.21c-.55,0-1.32-.33-1.71-.72l-9.12-9.13c-.39-.39-1.03-.39-1.41,0l-9.13,9.13c-.39,.39-1.16,.71-1.71,.72l-16.97,.21c-.55,0-1,.46-1,1.01v.11c0,.55,.45,.99,1,.99l14.87-.21c.55,0,.68,.3,.29,.69L2.23,68.29c-.39,.39-.26,.71,.29,.71H97.5ZM49.31,24.15c.39-.39,1.03-.39,1.41,0l6.16,6.17c.39,.39,.26,.71-.29,.71h-13.16c-.55,0-.68-.32-.29-.71l6.17-6.17Zm-9.6,9.7c.39-.39,1.16-.71,1.71-.71h17.21c.55,0,1.32,.32,1.71,.71l32.32,32.34c.39,.39,.26,.71-.29,.71H7.68c-.55,0-.68-.32-.29-.71L39.7,33.84Z"/></g><path class="cls-3" d="M31.74,59.85c-.39,.39-.26,.71,.29,.71h35.95c.55,0,.68-.32,.29-.71l-17.56-17.57c-.39-.39-1.02-.39-1.41,0l-17.56,17.57Z"/></g></g><g id="Etoile-2"><g><line class="cls-2" x1="68.99" y1="39.46" x2="68.99" y2="33.13"/><path class="cls-2" d="M20.49,50.01L2.23,31.73c-.39-.39-.26-.71,.29-.71H30.03c.55,0,1-.45,1-1V2.48c0-.55,.32-.68,.71-.29l17.56,17.57c.39,.39,1.03,.39,1.41,0L68.28,2.19c.39-.39,.71-.26,.71,.29V30.02c0,.55,.45,1,1,1h27.52c.55,0,.68,.32,.29,.71l-18.27,18.28"/><path class="cls-2" d="M67.98,69c.55,0,1,.45,1,1v27.54c0,.55-.32,.68-.71,.29l-28.1-28.12c-.39-.39-1.16-.71-1.71-.71h-6.43c-.55,0-1,.45-1,1v27.54c0,.55,.32,.68,.71,.29l28.1-28.12c.39-.39,1.16-.71,1.71-.71h6.43Z"/><line class="cls-2" x1="31.04" y1="33.13" x2="31.04" y2="39.46"/><path class="cls-2" d="M31.04,66.89v-24.38"/><path class="cls-2" d="M22.02,51.53l8.31,8.32c.39,.39,1.02,1.03,1.4,1.43l5.43,5.61"/><line class="cls-2" x1="68.99" y1="66.89" x2="68.99" y2="42.51"/><line class="cls-2" x1="78" y1="51.53" x2="62.66" y2="66.89"/></g></g></g><g id="Layer_50"><g id="Layer_52"><line class="cls-4" x1="772.18" y1="2.84" x2="61.29" y2="405.23"/><line class="cls-4" x1="732.24" y1="-134.74" x2="21.35" y2="267.65"/><line class="cls-4" x1="21.35" y1="-96.57" x2="732.24" y2="305.82"/><line class="cls-4" x1="21.35" y1="-257.67" x2="732.24" y2="144.73"/><line class="cls-4" x1="687.66" y1="-29.97" x2="-23.23" y2="372.42"/><line class="cls-4" x1="687.66" y1="-190.02" x2="-23.23" y2="212.37"/><line class="cls-4" x1="-23.23" y1="-202.78" x2="687.66" y2="199.61"/></g></g></svg>